<?xml version="1.0" standalone="no"?><!-- Generator: Gravit.io --><svg xmlns="http://www.w3.org/2000/svg" xmlns:xlink="http://www.w3.org/1999/xlink" style="isolation:isolate" viewBox="25.44 24.8 134.2 39.08" width="134.2" height="39.08"><g><path d=" M 89.68 49.72 L 89.68 49.72 L 85.84 49.68 L 85.84 49.68 Q 84.2 49.68 83.32 49.72 L 83.32 49.72 L 83.32 49.72 Q 82.68 55.32 82.68 58.8 L 82.68 58.8 L 82.68 58.8 Q 82.68 62.28 82.92 63.68 L 82.92 63.68 L 82.92 63.68 Q 81.64 63.76 81.24 63.76 L 81.24 63.76 L 81.24 63.76 Q 78.96 63.76 77.96 62.96 L 77.96 62.96 L 77.96 62.96 Q 76.96 62.16 76.96 60.14 L 76.96 60.14 L 76.96 60.14 Q 76.96 58.12 78.08 50.44 L 78.08 50.44 L 78.08 50.44 Q 76.8 50.84 76.2 51.12 L 76.2 51.12 L 76.2 51.12 Q 76.12 50.24 76.12 49.8 L 76.12 49.8 L 76.12 49.8 Q 76.12 47.04 78.64 46.36 L 78.64 46.36 L 78.64 46.36 Q 79.4 40.88 79.56 36.88 L 79.56 36.88 L 79.56 36.88 Q 77.52 36.88 76.98 36.32 L 76.98 36.32 L 76.98 36.32 Q 76.44 35.76 76.44 33.84 L 76.44 33.84 L 76.44 33.84 Q 76.6 32.04 76.76 31.48 L 76.76 31.48 L 76.76 31.48 Q 81.28 32.08 86.68 32.08 L 86.68 32.08 L 86.68 32.08 Q 92.08 32.08 97.12 31.12 L 97.12 31.12 L 97.12 31.12 Q 96.56 35.32 92 36.16 L 92 36.16 L 92 36.16 Q 89.52 36.64 84.92 36.8 L 84.92 36.8 L 84.92 36.8 Q 84.88 37.32 83.76 46.12 L 83.76 46.12 L 83.76 46.12 Q 86.08 46.2 86.92 46.2 L 86.92 46.2 L 86.92 46.2 Q 90.72 46.2 92.32 44.88 L 92.32 44.88 L 92.32 44.88 Q 92.4 45.68 92.4 46.08 L 92.4 46.08 L 92.4 46.08 Q 92.4 49.72 89.68 49.72 Z  M 104.4 43.2 L 104.4 43.2 Q 104.4 43.8 103.42 49.5 L 103.42 49.5 L 103.42 49.5 Q 102.44 55.2 102.42 58.9 L 102.42 58.9 L 102.42 58.9 Q 102.4 62.6 102.88 63.68 L 102.88 63.68 L 102.88 63.68 Q 99.76 62.88 98.68 61.26 L 98.68 61.26 L 98.68 61.26 Q 97.6 59.64 97.6 56.52 L 97.6 56.52 L 97.6 56.52 Q 97.6 54.84 98.24 50.44 L 98.24 50.44 L 98.24 50.44 Q 98.88 46.04 98.88 43.6 L 98.88 43.6 L 98.88 43.6 Q 98.88 41.16 98.64 39.84 L 98.64 39.84 L 98.64 39.84 Q 99.52 39.76 100.28 39.76 L 100.28 39.76 L 100.28 39.76 Q 102.6 39.76 103.5 40.54 L 103.5 40.54 L 103.5 40.54 Q 104.4 41.32 104.4 43.2 L 104.4 43.2 L 104.4 43.2 Z  M 105 36.24 L 105 36.24 L 105 36.24 Q 103.88 36.4 103.04 36.4 L 103.04 36.4 L 103.04 36.4 Q 98.92 36.4 98.92 33.52 L 98.92 33.52 L 98.92 33.52 Q 98.92 32.48 99.52 30.68 L 99.52 30.68 L 99.52 30.68 Q 100.64 30.52 101.48 30.52 L 101.48 30.52 L 101.48 30.52 Q 105.6 30.52 105.6 33.4 L 105.6 33.4 L 105.6 33.4 Q 105.6 34.44 105 36.24 Z  M 110.36 62.08 L 110.36 62.08 Q 109.88 61.28 109.76 60.54 L 109.76 60.54 L 109.76 60.54 Q 109.64 59.8 109.64 58.24 L 109.64 58.24 L 109.64 58.24 Q 109.64 56.68 110.98 45.96 L 110.98 45.96 L 110.98 45.96 Q 112.32 35.24 112.32 31.24 L 112.32 31.24 L 112.32 31.24 Q 112.32 27.24 111.84 26.04 L 111.84 26.04 L 111.84 26.04 Q 114.84 26.84 115.94 28.46 L 115.94 28.46 L 115.94 28.46 Q 117.04 30.08 117.04 33.04 L 117.04 33.04 L 117.04 33.04 Q 117.04 34.8 115.88 44.48 L 115.88 44.48 L 115.88 44.48 Q 114.72 54.16 114.72 60.08 L 114.72 60.08 L 114.72 60.08 Q 114.72 61.36 114.88 63.68 L 114.88 63.68 L 114.88 63.68 Q 111.24 63.52 110.36 62.08 L 110.36 62.08 L 110.36 62.08 Z  M 130.56 53.24 L 130.56 53.24 L 130.56 53.24 Q 128.64 53.24 126.8 52.8 L 126.8 52.8 L 126.8 52.8 Q 126.76 53.2 126.76 54.04 L 126.76 54.04 L 126.76 54.04 Q 126.76 57.36 128 59.04 L 128 59.04 L 128 59.04 Q 129.24 60.72 130.96 60.72 L 130.96 60.72 L 130.96 60.72 Q 132.68 60.72 134.24 59.68 L 134.24 59.68 L 134.24 59.68 Q 135.8 58.64 136.96 56.8 L 136.96 56.8 L 136.96 56.8 Q 138.4 57.12 138.4 58.28 L 138.4 58.28 L 138.4 58.28 Q 134.88 63.68 129.32 63.68 L 129.32 63.68 L 129.32 63.68 Q 125.96 63.68 123.44 61.1 L 123.44 61.1 L 123.44 61.1 Q 120.92 58.52 120.92 53.92 L 120.92 53.92 L 120.92 53.92 Q 120.92 50.48 122.24 47.38 L 122.24 47.38 L 122.24 47.38 Q 123.56 44.28 126.44 42.14 L 126.44 42.14 L 126.44 42.14 Q 129.32 40 132.82 40 L 132.82 40 L 132.82 40 Q 136.32 40 137.96 41.6 L 137.96 41.6 L 137.96 41.6 Q 139.6 43.2 139.6 45.8 L 139.6 45.8 L 139.6 45.8 Q 139.6 49.56 136.98 51.4 L 136.98 51.4 L 136.98 51.4 Q 134.36 53.24 130.56 53.24 Z  M 132.24 42.48 L 132.24 42.48 L 132.24 42.48 Q 130.2 42.48 128.8 45 L 128.8 45 L 128.8 45 Q 127.4 47.52 126.96 51.12 L 126.96 51.12 L 127.56 51.12 L 127.56 51.12 Q 131.04 51.12 132.7 49.32 L 132.7 49.32 L 132.7 49.32 Q 134.36 47.52 134.36 45 L 134.36 45 L 134.36 45 Q 134.36 43.96 133.82 43.22 L 133.82 43.22 L 133.82 43.22 Q 133.28 42.48 132.24 42.48 Z  M 152.68 42.36 L 152.68 42.36 L 152.68 42.36 Q 151.56 42.36 150.68 43.1 L 150.68 43.1 L 150.68 43.1 Q 149.8 43.84 149.8 45.2 L 149.8 45.2 L 149.8 45.2 Q 149.8 46.56 150.74 47.76 L 150.74 47.76 L 150.74 47.76 Q 151.68 48.96 153.04 49.86 L 153.04 49.86 L 153.04 49.86 Q 154.4 50.76 155.78 51.7 L 155.78 51.7 L 155.78 51.7 Q 157.16 52.64 158.2 54.02 L 158.2 54.02 L 158.2 54.02 Q 159.24 55.4 159.36 57.08 L 159.36 57.08 L 159.36 57.08 Q 159.36 59.96 156.88 61.92 L 156.88 61.92 L 156.88 61.92 Q 154.4 63.88 150.72 63.88 L 150.72 63.88 L 150.72 63.88 Q 147.04 63.88 144.94 62.4 L 144.94 62.4 L 144.94 62.4 Q 142.84 60.92 142.84 59 L 142.84 59 L 142.84 59 Q 142.84 57.08 144.02 55.9 L 144.02 55.9 L 144.02 55.9 Q 145.2 54.72 146.96 54.72 L 146.96 54.72 L 146.96 54.72 Q 147.88 54.72 148.68 55.04 L 148.68 55.04 L 148.68 55.04 Q 147.4 56.4 147.4 57.92 L 147.4 57.92 L 147.4 57.92 Q 147.4 59.44 148.24 60.36 L 148.24 60.36 L 148.24 60.36 Q 149.08 61.28 150.52 61.28 L 150.52 61.28 L 150.52 61.28 Q 151.96 61.28 152.94 60.54 L 152.94 60.54 L 152.94 60.54 Q 153.92 59.8 153.92 58.62 L 153.92 58.62 L 153.92 58.62 Q 153.92 57.44 153.24 56.52 L 153.24 56.52 L 153.24 56.52 Q 152.56 55.6 151.54 54.9 L 151.54 54.9 L 151.54 54.9 Q 150.52 54.2 149.32 53.32 L 149.32 53.32 L 149.32 53.32 Q 148.12 52.44 147.1 51.54 L 147.1 51.54 L 147.1 51.54 Q 146.08 50.64 145.4 49.26 L 145.4 49.26 L 145.4 49.26 Q 144.72 47.88 144.72 46.24 L 144.72 46.24 L 144.72 46.24 Q 144.72 43.4 147.06 41.58 L 147.06 41.58 L 147.06 41.58 Q 149.4 39.76 152.9 39.76 L 152.9 39.76 L 152.9 39.76 Q 156.4 39.76 158.02 41.12 L 158.02 41.12 L 158.02 41.12 Q 159.64 42.48 159.64 44.3 L 159.64 44.3 L 159.64 44.3 Q 159.64 46.12 158.5 47.4 L 158.5 47.4 L 158.5 47.4 Q 157.36 48.68 155.56 48.68 L 155.56 48.68 L 155.56 48.68 Q 154.68 48.68 153.56 48.32 L 153.56 48.32 L 153.56 48.32 Q 154.44 47.56 154.92 46.58 L 154.92 46.58 L 154.92 46.58 Q 155.4 45.6 155.4 44.64 L 155.4 44.64 L 155.4 44.64 Q 155.4 43.68 154.6 43.02 L 154.6 43.02 L 154.6 43.02 Q 153.8 42.36 152.68 42.36 Z " fill="rgb(255,128,0)"/><path d=" M 31.36 55 L 31.36 55 L 31.36 55 Q 31.36 59.76 34.24 59.76 L 34.24 59.76 L 34.24 59.76 Q 35.76 59.76 37.2 58.12 L 37.2 58.12 L 37.2 58.12 Q 38.64 56.48 39.54 53.72 L 39.54 53.72 L 39.54 53.72 Q 40.44 50.96 41.1 47.82 L 41.1 47.82 L 41.1 47.82 Q 41.76 44.68 42.08 41.16 L 42.08 41.16 L 42.08 41.16 Q 42.64 34.36 42.64 30.54 L 42.64 30.54 L 42.64 30.54 Q 42.64 26.72 42.32 24.8 L 42.32 24.8 L 42.32 24.8 Q 45.2 25.44 46.36 27.52 L 46.36 27.52 L 46.36 27.52 Q 47.52 29.6 47.52 32.76 L 47.52 32.76 L 47.52 32.76 Q 47.52 35.92 46.18 44.52 L 46.18 44.52 L 46.18 44.52 Q 44.84 53.12 44.84 57.08 L 44.84 57.08 L 44.84 57.08 Q 44.84 61.04 45.2 63.8 L 45.2 63.8 L 45.2 63.8 Q 42.36 63.04 41.3 61.06 L 41.3 61.06 L 41.3 61.06 Q 40.24 59.08 40.24 56.08 L 40.24 56.08 L 40.24 56.08 Q 39 59.52 36.52 61.52 L 36.52 61.52 L 36.52 61.52 Q 34.04 63.52 31.4 63.52 L 31.4 63.52 L 31.4 63.52 Q 28.76 63.52 27.1 61.5 L 27.1 61.5 L 27.1 61.5 Q 25.44 59.48 25.44 55.56 L 25.44 55.56 L 25.44 55.56 Q 25.44 49.36 28.84 44.9 L 28.84 44.9 L 28.84 44.9 Q 32.24 40.44 36.88 40.44 L 36.88 40.44 L 36.88 40.44 Q 38.2 40.44 41.04 41.08 L 41.04 41.08 L 41.04 41.08 Q 38.56 41.72 36.62 43.3 L 36.62 43.3 L 36.62 43.3 Q 34.68 44.88 33.6 46.92 L 33.6 46.92 L 33.6 46.92 Q 31.36 50.96 31.36 55 Z  M 63.08 43.04 L 63.08 43.04 L 63.08 43.04 Q 60.48 43.04 58.44 46.54 L 58.44 46.54 L 58.44 46.54 Q 56.4 50.04 56.4 53.52 L 56.4 53.52 L 56.4 53.52 Q 56.4 60.8 60.16 60.8 L 60.16 60.8 L 60.16 60.8 Q 62.84 60.8 64.52 57.3 L 64.52 57.3 L 64.52 57.3 Q 66.2 53.8 66.2 49.44 L 66.2 49.44 L 66.2 49.44 Q 66.2 43.04 63.08 43.04 Z  M 59.68 39.44 L 59.68 39.44 L 59.68 39.44 Q 60.12 39.44 60.5 39.7 L 60.5 39.7 L 60.5 39.7 Q 60.88 39.96 60.88 40.24 L 60.88 40.24 L 60.88 40.24 Q 56.84 43.04 56.04 48.04 L 56.04 48.04 L 56.04 48.04 Q 56.88 45.8 58.1 44.16 L 58.1 44.16 L 58.1 44.16 Q 59.32 42.52 60.64 41.68 L 60.64 41.68 L 60.64 41.68 Q 63.16 40.12 65.56 40.12 L 65.56 40.12 L 65.56 40.12 Q 67.96 40.12 69.64 42.48 L 69.64 42.48 L 69.64 42.48 Q 71.32 44.84 71.32 48.8 L 71.32 48.8 L 71.32 48.8 Q 71.32 53.24 69.52 56.96 L 69.52 56.96 L 69.52 56.96 Q 67.52 61.16 63.84 62.76 L 63.84 62.76 L 63.84 62.76 Q 61.76 63.68 59.28 63.68 L 59.28 63.68 L 59.28 63.68 Q 55.8 63.68 53.22 60.98 L 53.22 60.98 L 53.22 60.98 Q 50.64 58.28 50.64 53.22 L 50.64 53.22 L 50.64 53.22 Q 50.64 48.16 53.12 44.3 L 53.12 44.3 L 53.12 44.3 Q 55.6 40.44 59.68 39.44 Z " fill="rgb(33,150,243)"/></g></svg>